<?xml version="1.0" encoding="UTF-8"?>
<!-- Generator: Adobe Illustrator 21.0.0, SVG Export Plug-In . SVG Version: 6.00 Build 0)  -->
<svg version="1.1" id="Layer_3" xmlns="http://www.w3.org/2000/svg" xmlns:xlink="http://www.w3.org/1999/xlink" x="0px" y="0px" viewBox="0 0 1440 580" style="enable-background:new 0 0 1440 580;" xml:space="preserve">
<style type="text/css">
	.st11 {
        position: absolute;
        <!-- animation-name: bounce;
        animation-fill-mode: both;
        animation-duration: 1.5s;
        animation-iteration-count: infinite; -->
    }
    .circle{
		fill: #FF6246;
		transform: scale(0.5) rotateX(55deg);
		transform-origin: center center;
		animation: pulse-me 2s linear infinite;
	}
	@keyframes pulse-me{
		0%{
			transform: scale(0.5) rotateX(55deg);
			opacity: 0;
		}
		50%{
			opacity: 0.3;
		}
		70%{
			opacity: 0.4;
		}
		100%{
			transform: scale(4) rotateX(55deg);
			opacity: 0;
		}
	}
    .st0{fill:#91B7DC;}
	.st1{fill:#8AADCE;}
	.st2{fill:#A2C3E2;}
	.st3{fill:#9BBCDC;}
	.st4{fill:#8EACBE;}
	.st5{fill:#D7D7D7;}
	.st6{fill:#FFFFFF;}
	.st7{fill:#C5C5C5;}
	.st8{fill:#B8C18E;}
	.st9{fill:#E1E1E1;}
	.st10{fill:#E1F059;}
	.st11{fill:#FF6246;}
	
</style>
<polygon class="st0" points="303,285 351.3,306.2 289.5,343.5 184.5,343.5 184.5,339 226.8,315.2 "/>
<polygon class="st1" points="1124.2,286.5 1093,296.6 1046.3,301.8 1071,322 1115.5,326.2 1133.4,305.5 "/>
<polygon class="st0" points="1297.2,310.9 1242.3,344.7 1098.7,344.7 1071,322 1074,316.5 1091,322 1096.2,319 1100.7,312.7   1104.2,307.5 1123,305 1108.7,302.8 1113,295.8 1123.8,295.8 1124.2,286.5 1182.3,307.8 1204.4,321 "/>
<polygon class="st2" points="759.1,280.6 759.1,273.8 787.8,212.7 816,269.7 833.2,255 868.4,292.3 "/>
<polygon class="st2" points="578.2,185.3 625.5,269.3 598.5,262.5 595,268.8 582.8,236.7 578.8,259.5 570.3,247.2 560.2,294.5   545.5,283.7 538.3,293.3 530.3,283.3 513.3,297.4 532,258.2 548,272.8 552,246.8 "/>
<polygon class="st1" points="552,246.8 548,272.8 532,258.2 489.1,347.9 417,347.9 425,321.2 476.7,282.5 492.8,271.2 518,257.2   520.5,264.2 540.8,235.5 542.5,255.2 "/>
<polygon class="st0" points="625.5,269.3 633.5,286.5 668.1,312.7 663.2,350.4 486,350.4 513.3,297.4 530.3,283.3 538.3,293.3   545.5,283.7 560.2,294.5 570.3,247.2 578.8,259.5 582.8,236.7 595,268.8 598.5,262.5 "/>
<polygon class="st0" points="759.1,280.6 769,272.3 774.8,269.3 776.8,252.5 785,257 792.3,239.5 793.5,254.8 798.5,272.3   812.2,274.5 825,280.6 827.3,272.3 831.2,271 833,263.8 836,269.3 842.2,276.7 857.9,282.5 892,314.2 852.3,327.3 "/>
<polygon class="st1" points="119.9,345 303,285 273.2,303.1 264.8,307.8 265.5,321.2 226.8,315.2 217.2,327.8 184.5,343.5 "/>
<polygon class="st1" points="759.1,280.6 759.1,273.8 759.1,261.6 754.6,260.8 754.6,256.9 752.1,256.9 744.8,267.6 739.3,268   733.5,274.6 739.3,286 "/>
<polygon class="st3" points="1247.4,316.3 1204.4,321 1227.9,330.2 1224.1,323 "/>
<polygon class="st3" points="578.2,185.3 476.7,282.5 518,257.2 520.5,264.2 540.8,235.5 542.5,255.2 552,246.8 "/>
<polygon class="st3" points="787.8,212.7 739.3,268 744.8,267.6 752.1,256.9 754.6,256.9 754.6,260.8 759.1,261.6 759.1,273.8 "/>
<polyline class="st4" points="478.1,347.9 577.1,348.5 651.7,348.5 784.3,446.8 761.5,478 846.3,556.5 874.7,582.7 698,582.7   606.8,498.8 676.4,443.8 657.2,427.8 486.7,368.2 478.1,347.9 "/>
<polygon id="Grey_Scene_Right" class="st5" points="1242.3,344.7 1098.7,344.7 1006.7,269.3 959.3,296 930.7,290 882.7,316.7   861.3,295.3 827.3,302 773.3,276.7 739.3,286 717.3,241.3 636,332.7 586,344.7 577.1,348.5 596.5,353.1 594.6,362.8 624.6,365.1   635.1,371.2 630.9,377.4 646.9,377.4 664,386.6 664,390 679.5,391.6 671.4,398.4 708.2,427.6 768.6,439.5 752.1,461.6 706.6,465.9   692.5,489.5 692.1,500.9 751.1,522.8 813.8,539.5 828,547.8 832.9,565.6 867.5,581.4 1440,581.4 1440,480.5 1440,354.4   1304.6,306.4 "/>
<polygon id="Grey_Scene_Left" class="st5" points="703,581.4 737.5,553 720.2,540 678,527.5 634.5,503 656,486.5 671,454 699.5,445   693.5,436 656,413.5 647.5,399 595.5,376 535.5,331 488.5,363 456.5,316.5 443.5,323 396,279.3 347.3,332.3 289.5,343.5   184.5,343.5 119.9,345 54.7,292.9 0,333.8 0,347.9 0,581.4 "/>
<polygon class="st6" points="1190.7,515.3 740.9,519 754.3,523.6 1440,519.5 1440,515.3 "/>
<path class="st6" d="M907,491.3"/>
<polyline class="st6" points="764.7,473.8 783,518.5 792.3,518.5 769.5,473.8 764.7,473.8 "/>
<polygon class="st7" points="347.3,332.3 396,279.3 289.5,343.5 223.3,365 252,383.7 260,387 268.7,390 305,392.7 366.3,365.7   352,361.3 350,351.7 339,355 341,344 "/>
<polygon class="st7" points="401.7,359.7 385.7,401 405.7,401 429.3,394.3 421.7,401 452.7,401 464,392.7 535.5,331 488.5,363   452.7,377.7 442,377.7 420.3,353.3 416.7,373 404,364 404,351.3 "/>
<polygon class="st7" points="717.3,241.3 636,332.7 586,344.7 577.1,348.5 596.5,353.1 594.6,362.8 624.6,365.1 652,336 "/>
<polygon class="st7" points="666.7,344 635.1,371.2 630.9,377.4 668.3,377.4 652.7,369.7 "/>
<polygon class="st7" points="764.7,325.3 679.5,391.6 671.4,398.4 708.2,427.6 718,429.5 "/>
<polygon class="st7" points="789,322.7 811,324 852.3,319.7 812.7,331 803.3,349 802.3,328 "/>
<polygon class="st7" points="773.3,276.7 739.3,286 742.7,294.7 749.7,290 770,290 761,283 "/>
<polygon class="st7" points="861.3,295.3 827.3,302 820.7,312.7 "/>
<polygon class="st7" points="876,319.7 930.7,290 911.7,312.7 874,349 887.7,328.3 "/>
<polygon class="st7" points="1006.7,269.3 1001.7,294.7 987,311 987,331.7 959.3,296 "/>
<polygon class="st7" points="838.3,402.7 792.3,439.7 820.7,447.7 "/>
<polygon class="st7" points="701.5,474.4 943.7,472.2 1338.5,468.6 1334.5,463.7 706.6,465.9 "/>
<polygon class="st7" points="1074.7,581.4 943.7,472.2 954,472.1 1095.7,581.4 "/>
<polygon class="st7" points="1153.9,506.7 998.3,506.3 994.8,503.5 1137,503.5 1083.7,470.9 1095.7,470.9 "/>
<polygon class="st7" points="1242.3,558 1065.4,558 1071.9,563 1242.3,563 "/>
<polygon class="st7" points="1124,389.7 1140,426.3 1157.7,428.3 1139.3,430.3 1065.4,425 1111.5,417 "/>
<polygon class="st7" points="1147,343.3 1125.7,356 1129.7,367.3 1108.7,351 "/>
<polygon class="st8" points="289.5,343.5 223.3,365 256.4,385.5 268.7,390 229.3,390 100.7,356.1 73.9,343.5 119.9,345 184.5,343.5   "/>
<polygon class="st8" points="342.3,396.3 268.7,390 184.5,390 244,405.7 "/>
<polygon class="st8" points="368.8,436.3 396,423 399.6,421.3 346,418.3 383,405.2 461,405.2 483,424 508,439.5 498.4,450.2   420,450 414,448.5 381.1,445.5 "/>
<polygon class="st8" points="678,527.5 663.7,530 636.7,522 596.3,531.3 540.7,538.7 562,557 438,581.4 703,581.4 737.5,553   720.2,540 "/>
<polygon class="st8" points="603,403 592.3,401 572.3,411.4 555.3,430.4 563,440 605.7,452.3 600.7,460 614,460 616.7,465.7   635.3,454.3 674,457.7 671.4,448.9 688,439.3 668.3,436.3 675.7,431.3 655.7,422.7 653.3,429.6 632.7,429.7 613.3,428.2   606.3,419.7 605.3,409 "/>
<polygon class="st8" points="735.7,303.2 688,377.4 668.3,377.4 688,382 675.7,386.3 685.3,387.1 734.3,349 "/>
<polygon class="st8" points="983,345.2 983,349 951.7,356.7 941.3,371.3 918.3,364 912.7,375 899,394.7 876,419.7 855.7,441.7   957.7,435 933,444.3 986.7,444.3 967,455.7 1038.7,457.3 1030.3,451 1130.7,445 1122.3,439.7 1139.3,430.3 1065.4,425 1000.7,345.2   1000,356.7 "/>
<polygon class="st8" points="1042.7,370.7 1042.7,362.3 1054.3,359 1061,345.2 1091,374.3 "/>
<polygon class="st8" points="1006.7,269.3 1013,312.7 1065.4,325.3 1057.7,329.3 1072.7,331.7 1088.3,336.2 "/>
<polygon class="st8" points="1098.7,344.7 1242.3,344.7 1259,357.2 1229,361.7 1211.3,353.2 1208.7,361.7 1225,369.7 1181.3,364.7   1164.7,355.3 1149,349 "/>
<polygon class="st8" points="1203.3,378.7 1259,405.7 1242.3,414.3 1149.8,431.9 1176.7,410 1185.3,414.7 1203.7,410 1212,401.3 "/>
<polygon class="st8" points="859,491.3 907,491.3 930.7,517 878,517 "/>
<polygon class="st9" points="396,279.3 393.3,282.3 394.6,305.7 402.7,301.7 400.7,316.5 405.7,318.7 394.7,334.3 427,331 431,336   439.7,338 439.7,342 448.7,339.3 454,340.3 454,345.3 444.3,351.3 461,351.3 460.6,360.3 472,360.3 488.5,363 456.5,316.5   443.5,323 "/>
<polygon class="st9" points="535.5,331 530,348 539.7,360.7 549.3,360.7 524.7,372.7 549.3,374 552.7,382.7 555,387.1 564.7,382.3   571.7,381.7 578.7,381.7 581.3,390 580,397.8 600.7,397.8 605.7,405.7 619,405.7 658.5,423.9 675.7,431.3 668.3,436.3 688,439.3   671.4,448.9 673,454.2 706.9,445.2 679.5,426.5 655.5,411.4 647.5,399 604.8,377.4 "/>
<polygon class="st9" points="717.3,241.3 715.8,252.8 716.5,258.8 712.8,264.1 709,268.5 715.5,269.2 719.4,271.2 720.6,275.4   718.2,279.8 725.2,285 725.2,290 715.8,300.2 731.6,294.7 735.7,303.2 742.7,294.7 730.5,268 "/>
<polygon class="st9" points="773.3,276.7 773.3,281.9 777.2,285.7 777.2,289.2 778.4,294 784.2,296 789,297.6 792.4,295.3   793.9,297.6 797.6,298.8 798.8,297.4 800.9,301.5 808,305.9 812.2,309.9 820.7,312.7 827.3,302 "/>
<polygon class="st9" points="876,319.7 872,319.7 863.8,336.5 857.9,346.5 857.9,352.9 859.1,362.4 871.6,381.1 874,349   887.5,327.2 "/>
<polygon class="st9" points="959.3,296 930.7,290 938.3,295 943.1,299.8 951.7,304.6 952.9,305.6 946.9,314.6 957.4,315.6   966.2,334.4 966.8,339 966.8,339.6 973.8,340.2 983,345.8 978.5,320.7 "/>
<polygon class="st9" points="1203.3,378.7 1164.7,355.3 1149,349 1139.3,349 1144.2,351.8 1144.2,357.2 1154.6,359.8 1160.8,359.8   1155.8,365 1160.2,367.3 1169,367.3 1172.2,374.3 1172.5,382.2 1179,387.2 1185.5,387.2 1193.5,387.2 1193,394.2 1203.3,398.5   1207.8,398.5 1202.5,405.5 1185.3,414.7 1203.7,410 1212,401.3 "/>
<polygon class="st6" points="907,491.3 691.5,491.3 517.7,488 275.3,481.3 159.9,468.4 173.1,462.9 277,472.7 520,481.3   657.2,485.8 694.3,486.5 902.3,488.3 "/>
<polygon class="st6" points="914.2,581.4 839.2,472.1 843.5,472.1 930.7,581.4 "/>
<polygon class="st6" points="820.5,487.6 809,473.4 804.5,473.4 812.5,487.6 "/>
<polygon class="st6" points="990.5,472.1 1045.5,517 1057.2,516.4 999,471.7 "/>
<polygon class="st6" points="1102.2,446.7 1271.8,581.4 1298,581.4 1111.5,446.1 "/>
<polygon class="st6" points="1116,445.9 1305.9,581.4 1323,581.4 1125.5,445.3 "/>
<polygon class="st6" points="606.8,460 527.8,515.8 390,515.8 402.5,510.8 524.7,512.2 600.7,460 "/>
<polygon class="st6" points="578.2,454.2 499.7,498.9 354.8,581.4 331,581.4 569.5,454.2 "/>
<polygon class="st6" points="541.6,500.6 499.7,498.9 505.1,495.8 547.1,496.8 "/>
<polygon class="st6" points="173.1,462.9 193.5,424.8 385.7,401 386.9,397.8 187.2,420.8 176,440.5 159.9,468.4 "/>
<polygon class="st7" points="537.8,454.2 228,581.4 203,581.4 531.5,454.2 "/>
<polygon class="st7" points="498.4,450.2 141.3,581.4 108,581.4 492,450.2 "/>
<polygon class="st7" points="332.9,538.3 540.7,538.7 547.1,544.2 321.1,543.2 "/>
<polygon class="st10" points="0,555 218.6,475 211.5,474.2 118.4,504.9 108,508.3 0,543.8 "/>
<polygon class="st10" points="994.8,580 979.6,564.8 875.2,460.5 818.1,457.3 764.7,438.4 800.1,433.4 792.3,439.7 787.2,441.3   823.7,453.2 879.7,456.4 1025.2,580 "/>
<polygon class="st10" points="836.8,567.4 979.6,564.8 967.4,552.7 829.9,554.6 832.9,565.6 "/>
<polygon class="st8" points="0,376.1 25.4,366.4 38.8,355.2 73.5,355.2 92.2,370.5 113.4,383.3 86.2,383.3 38.7,397.8 22.4,389.7   3.9,387.2 "/>
<polygon class="st7" points="42.1,307.2 54.7,292.9 0,333.8 0,347.9 0,355.2 21.1,342.5 25.4,332.3 38.2,332.1 33,326.3 48.2,321.5   38.4,315.8 38.9,310.9 47.5,310.4 "/>
<polygon class="st9" points="54.7,292.9 54.7,301.5 56,324.8 64.1,320.8 62.1,335.7 67.1,337.8 73.9,343.5 96.9,344.3 119.9,345 "/>
<polyline class="st6" points="295.3,515.3 177,513.2 0,581.4 0,567.8 240.9,477.5 260,479.5 194.8,506.7 321.1,508.6 "/>
<polygon class="st6" points="0,447.5 172,448.8 168.1,454.2 62,454.2 0,454.2 "/>
<polygon class="st6" points="0,438.8 176,440.5 173.1,445.5 0,445.5 "/>
<polygon class="st7" points="381.1,401.6 0,541.2 0,530 373.8,402.5 "/>
<polygon class="st7" points="1440,556.4 1253.1,408.7 1259,405.7 1440,537 "/>
<polygon class="st7" points="1304.6,306.4 1302.1,325.5 1287.6,331.2 1281.2,344.7 1268.8,349 1274,357.2 1259,357.2 1242.3,344.7   "/>
<polygon class="st9" points="1374.1,331 1304.6,306.4 1313.6,318.8 1323.4,321.6 1317.8,326 1326.4,330.6 1328.5,336.1   1339.9,334.1 1350.9,344.7 1360.2,342.2 "/>
<polygon class="st7" points="1410,353.7 1390.2,378.7 1396,389.7 1405.2,399.5 1377.6,394.9 1370.5,386.5 "/>
<polygon class="st9" points="1428,361.5 1440,378.7 1440,395.5 1427.5,381.8 1422,383.3 1423,369.7 1410,353.7 "/>
<polygon class="st8" points="1370.5,386.5 1377.6,394.9 1303.8,391.3 1253.1,375.1 1287.6,380.3 1319,374.6 1312,353.7   1331.7,360.9 "/>
<polygon class="st2" points="1124.2,286.5 1123.8,295.8 1113,295.8 1108.7,302.8 1123,305 1104.2,307.5 1100.7,312.7 1091,322   1106.9,315.6 1115.5,326.2 1126.6,314.5 1133.4,319.5 1135.3,306.4 1143.1,316.3 1144.8,311.3 1153.1,317.9 1152.7,309.3   1180.3,312.2 1204.4,321 1182.3,307.8 "/>
<g>
	<path style="animation-delay: .4s;" class="st11" d="M518.1,446.1v2.8l0,0V446.1c-4,0-7.3,3.3-7.3,7.3s7.3,16,7.3,16l0,0c0,0,7.3-12,7.3-16   C525.4,449.4,522.1,446.1,518.1,446.1z M518.1,456.5c-1.7,0-3.1-1.4-3.1-3.1s1.4-3.1,3.1-3.1c1.7,0,3.1,1.4,3.1,3.1   C521.2,455.1,519.8,456.5,518.1,456.5z M522.5,453.9c0-0.1,0-0.2,0-0.3C522.6,453.7,522.6,453.9,522.5,453.9z"/>
	<circle style="animation-delay: .4s;" class="circle" fill="#FF6347" cx="518" cy="470" r="5"/>
</g>
<g>
	<path style="animation-delay: .7s;" class="st11" d="M885,453.6v2.8l0,0V453.6c-4,0-7.3,3.3-7.3,7.3s7.3,16,7.3,16l0,0c0,0,7.3-12,7.3-16S889,453.6,885,453.6z    M885,464c-1.7,0-3.1-1.4-3.1-3.1s1.4-3.1,3.1-3.1c1.7,0,3.1,1.4,3.1,3.1C888,462.6,886.7,464,885,464z M889.4,461.4   c0-0.1,0-0.2,0-0.3C889.5,461.2,889.5,461.4,889.4,461.4z"/>
	<circle style="animation-delay: .7s;" class="circle" fill="#FF6347" cx="885" cy="475" r="5"/>
</g>
<g>
	<path style="animation-delay: .34s;" class="st11" d="M1078.7,518.2v4.5l0,0V518.2c-6.5,0-11.7,5.3-11.7,11.7s11.7,25.6,11.7,25.6l0,0c0,0,11.7-19.2,11.7-25.6   S1085.2,518.2,1078.7,518.2z M1078.7,534.8c-2.7,0-5-2.3-5-5s2.3-5,5-5s5,2.3,5,5S1081.5,534.8,1078.7,534.8z M1085.8,530.7   c0-0.2,0-0.3,0-0.5C1085.9,530.3,1085.9,530.6,1085.8,530.7z"/>
	<circle style="animation-delay: .34s;" class="circle" fill="#FF6347" cx="1078" cy="555" r="7"/>
</g>
<g>
	<path style="animation-delay: .6s;" class="st11" d="M364.7,306.2v1.6l0,0V306.2c-2.3,0-4.1,1.8-4.1,4.1c0,2.3,4.1,8.9,4.1,8.9l0,0c0,0,4.1-6.7,4.1-8.9   C368.8,308,366.9,306.2,364.7,306.2z M364.7,311.9c-0.9,0-1.7-0.8-1.7-1.7s0.8-1.7,1.7-1.7s1.7,0.8,1.7,1.7   S365.6,311.9,364.7,311.9z M367.1,310.5c0-0.1,0-0.1,0-0.2C367.2,310.4,367.2,310.5,367.1,310.5z"/>
	<circle style="animation-delay: .5s;" class="circle" fill="#FF6347" cx="364" cy="319" r="3"/>
</g>
<g>
	<path style="animation-delay: .26s;" class="st11" d="M702,512v4.1l0,0V512c-5.9,0-10.7,4.8-10.7,10.7S702,546,702,546l0,0c0,0,10.7-17.4,10.7-23.3   S707.9,512,702,512z M702,527.1c-2.5,0-4.5-2.1-4.5-4.5c0-2.5,2.1-4.5,4.5-4.5s4.5,2.1,4.5,4.5C706.5,525.1,704.5,527.1,702,527.1z    M708.5,523.4c0-0.2,0-0.3,0-0.5C708.5,523.1,708.5,523.3,708.5,523.4z"/>
	<circle style="animation-delay: .26s;" class="circle" fill="#FF6347" cx="702" cy="545" r="7"/>
</g>
<g>
	<path style="animation-delay: .5s;" class="st11" d="M1261,348.8v1.6l0,0V348.8c-2.3,0-4.1,1.8-4.1,4.1s4.1,8.9,4.1,8.9l0,0c0,0,4.1-6.7,4.1-8.9   S1263.2,348.8,1261,348.8z M1261,354.6c-0.9,0-1.7-0.8-1.7-1.7s0.8-1.7,1.7-1.7c0.9,0,1.7,0.8,1.7,1.7S1261.9,354.6,1261,354.6z    M1263.4,353.2c0-0.1,0-0.1,0-0.2C1263.5,353.1,1263.5,353.1,1263.4,353.2z"/>
	<circle style="animation-delay: .5s;" class="circle" fill="#FF6347" cx="1261" cy="362" r="4"/>
</g>
<polygon class="st7" points="227.8,457.8 315.3,457.8 323.3,457.8 469.9,457.8 454.8,462.9 213.8,462.9 "/>
<polygon class="st7" points="315.3,457.8 298.7,457.7 364.7,426.3 318.1,424.7 329.4,420.5 386.9,422 "/>
</svg>